<?xml version="1.0" encoding="UTF-8" standalone="no"?>
<svg
   xmlns:dc="http://purl.org/dc/elements/1.1/"
   xmlns:cc="http://creativecommons.org/ns#"
   xmlns:rdf="http://www.w3.org/1999/02/22-rdf-syntax-ns#"
   xmlns:svg="http://www.w3.org/2000/svg"
   xmlns="http://www.w3.org/2000/svg"
   xmlns:sodipodi="http://sodipodi.sourceforge.net/DTD/sodipodi-0.dtd"
   xmlns:inkscape="http://www.inkscape.org/namespaces/inkscape"
   version="1.0"
   width="198.66667"
   height="200"
   viewBox="0 0 149.00001 150"
   preserveAspectRatio="xMidYMid meet"
   id="svg3729"
   sodipodi:docname="logo.svg"
   inkscape:version="0.92.3 (2405546, 2018-03-11)">
  <metadata
     id="metadata3735">
    <rdf:RDF>
      <cc:Work
         rdf:about="">
        <dc:format>image/svg+xml</dc:format>
        <dc:type
           rdf:resource="http://purl.org/dc/dcmitype/StillImage" />
        <dc:title />
      </cc:Work>
    </rdf:RDF>
  </metadata>
  <defs
     id="defs3733" />
  <sodipodi:namedview
     pagecolor="#ffffff"
     bordercolor="#666666"
     borderopacity="1"
     objecttolerance="10"
     gridtolerance="10"
     guidetolerance="10"
     inkscape:pageopacity="0"
     inkscape:pageshadow="2"
     inkscape:window-width="1920"
     inkscape:window-height="1001"
     id="namedview3731"
     showgrid="false"
     inkscape:snap-center="false"
     inkscape:zoom="4.1248834"
     inkscape:cx="142.00748"
     inkscape:cy="106.39849"
     inkscape:window-x="-9"
     inkscape:window-y="-9"
     inkscape:window-maximized="1"
     inkscape:current-layer="g21532"
     units="px" />
  <g
     inkscape:groupmode="layer"
     id="layer1"
     inkscape:label="Layer 1"
     transform="translate(0,-810.00002)" />
  <g
     inkscape:groupmode="layer"
     id="layer2"
     inkscape:label="Layer 2"
     transform="translate(0,-810.00002)" />
  <g
     id="g21532"
     transform="matrix(0.13590681,0,0,0.14874913,-18.498642,3.890071)">
    <path
       sodipodi:nodetypes="cccccccccsccccccccsccccscscccccccccccccsccccscccccccccccssccsccccccccccccccscccccccccccccccccccccccccccc"
       d="m 1152.9952,179.99252 c -23.6312,18.02796 -138.7927,79.28515 -133.5757,90.63304 20.1673,43.83229 171.2393,18.88495 157.6127,62.45736 -11.6278,76.67316 -110.6401,90.38736 -171.2453,125.28378 -2.9589,2.16562 -6.38503,7.9695 -11.21272,19.05751 -2.80317,6.41026 -4.98342,12.90714 -5.76208,16.89189 -0.70079,3.55163 -3.50396,12.47402 -6.30714,19.83715 -7.00793,18.19126 -8.40952,23.04227 -12.38068,42.53291 -7.16367,35.25641 -8.56525,47.73042 -7.94232,69.30007 0.54506,19.40401 3.1925,33.5239 9.03244,48.68329 3.03677,7.88288 4.98342,19.40402 4.51623,26.50727 -0.62293,9.26889 -8.09806,37.42204 -15.72892,59.07831 -3.97116,11.43451 -16.35185,39.32779 -22.34752,50.24255 -9.42178,17.49826 -20.86807,34.5634 -29.66692,44.43866 -7.94233,8.83576 -16.81904,11.95426 -40.25669,14.37976 -16.35184,1.73251 -25.07283,0.95288 -29.19972,-2.59875 -1.79092,-1.64587 -1.94665,-2.25225 -1.79092,-8.40263 0.15573,-4.851 -0.15573,-7.44976 -1.16799,-9.44213 -0.70079,-1.55926 -1.32372,-3.55163 -1.32372,-4.59113 0,-7.36313 10.12257,-14.98614 23.74911,-17.75814 8.25379,-1.73251 12.06922,-3.72488 14.6388,-7.53639 1.01225,-1.55925 4.43835,-7.9695 7.63086,-14.11988 3.11463,-6.23701 8.40952,-16.19889 11.67989,-22.17603 9.57751,-17.41164 13.938,-28.06652 13.938,-34.13028 0,-8.83575 -10.35617,-28.75952 -18.53209,-35.68953 -1.86879,-1.55925 -33.56546,-82.05683 -33.95479,-82.05683 -1.71305,0 21.41837,87.34096 14.09897,98.25572 -11.60202,17.41164 -19.15501,26.85378 -39.47802,49.3763 -19.85581,22.08939 -30.28985,32.4844 -44.30572,44.00554 -4.98342,4.07138 -11.29056,9.87526 -14.09373,12.82051 -3.34823,3.55163 -6.07354,5.71725 -8.17592,6.32363 -3.73757,1.12613 -33.79382,1.21275 -47.96541,0.17325 -12.53642,-0.95288 -14.6388,-1.99238 -18.2985,-9.00901 -1.55732,-2.94525 -2.9589,-6.5835 -3.1925,-8.22938 -0.38933,-2.51213 -0.0779,-3.29175 2.9589,-6.49688 5.76208,-6.06376 10.20044,-9.87526 14.71666,-12.38739 4.1269,-2.33888 4.82769,-2.51213 18.45423,-2.94525 l 14.1716,-0.43313 7.55299,-9.09563 c 36.90846,-44.69854 43.13773,-53.5343 43.13773,-61.15731 0,-9.52876 -6.54074,-18.36451 -29.58905,-40.19403 -27.87601,-26.42065 -63.92793,-70.25294 -84.95173,-103.51697 -16.35185,-25.81428 -24.6835,-30.23216 -34.96181,-18.53777 -9.42177,10.74151 -18.84355,31.61815 -36.67485,81.08107 -17.98703,49.89605 -18.99929,54.2273 -18.99929,79.95495 0,21.48302 0.54507,26.16078 5.91781,50.67567 5.76208,26.33403 7.24154,36.38254 7.24154,49.46292 l 0.0779,11.34789 -2.9589,6.49688 c -3.73757,8.14276 -8.40952,14.11989 -15.10599,19.23077 -6.69647,5.02425 -9.57751,5.63063 -15.41746,3.20513 -9.49964,-3.98476 -17.8313,-12.73389 -24.06057,-25.2079 -5.21702,-10.56826 -7.24153,-19.14414 -8.25379,-33.95703 -0.38933,-6.06376 -1.55732,-14.98614 -2.64744,-19.92377 -1.24586,-5.89051 -2.18025,-13.86001 -2.72531,-23.21552 -0.46719,-7.88289 -1.01225,-17.06514 -1.24585,-20.3569 -0.7008,-10.65488 -2.72531,-74.93069 -2.72531,-87.66458 0,-13.34026 -0.2336,-14.98614 -2.33598,-14.98614 -2.80317,0 -5.21702,4.67776 -6.54074,12.73389 -2.56957,15.76576 -6.54073,54.5738 -9.03244,88.18433 -0.4672,6.15038 -1.16799,15.76577 -1.55732,21.22315 -0.38933,5.45738 -1.09013,24.94802 -1.55732,43.31254 -1.09012,44.52529 -2.64744,55.35342 -9.49964,66.70131 -3.34824,5.63063 -8.0202,9.61538 -13.08148,11.34788 -7.47513,2.42551 -43.21559,1.64588 -53.2603,-1.12612 -3.34823,-0.95288 -4.04903,-1.55925 -5.68421,-4.93763 -3.50397,-7.44976 -1.40159,-16.63202 5.76208,-25.2079 4.28262,-5.11088 8.87671,-8.22938 17.5977,-11.69439 6.07354,-2.4255 7.94232,-6.15038 12.45855,-25.55439 6.30714,-27.20028 6.15141,-31.53153 -3.34824,-69.73319 -5.52848,-22.52252 -5.13915,-20.61677 -11.67989,-55.09356 -8.33165,-43.65904 -11.83562,-58.12542 -18.76569,-75.88357 -6.8522,-17.84476 -13.08147,-28.41302 -28.73252,-48.85654 -20.71234,-26.9404 -40.64602,-58.90505 -61.74769,-99.09909 -13.78227,-26.2474 -21.64673,-44.43867 -23.20404,-53.96743 -1.09013,-6.41025 -4.90556,-17.32501 -10.04471,-28.75952 -7.3194,-16.28552 -11.44629,-21.65627 -23.35978,-30.75191 -8.56525,-6.5835 -23.12618,-22.86902 -29.82265,-33.35065 -6.15141,-9.61539 -14.4052,-27.80665 -17.20837,-37.76854 -3.73756,-13.42688 -4.36049,-19.92377 -4.28263,-41.83991 0.0779,-21.3964 -0.0779,-22.69577 -3.89329,-39.50104 -1.32372,-5.71725 -2.88104,-14.46639 -3.58183,-19.49064 -1.40159,-10.22176 -2.33598,-14.55301 -6.61861,-30.7519 -4.43836,-16.80527 -5.26338,-12.23131 -5.34124,-21.24032 0,-16.1989 21.48748,-12.35126 37.91719,-3.862 19.36396,8.67949 17.00718,17.37553 36.25753,28.13419 1.16799,0 5.52848,-1.29937 9.73324,-2.94525 15.57319,-6.06375 35.6626,-7.79626 56.53067,-4.93763 17.75343,2.4255 22.26966,2.4255 24.83923,-0.17325 1.09012,-1.0395 4.04903,-6.5835 6.61861,-12.30076 15.65605,-30.23158 10.31067,-47.36314 39.16187,-33.71561 1.32372,2.772 10.75019,2.18408 11.52885,31.54998 1.09012,39.32779 3.58183,57.43243 9.8111,71.20582 2.56958,5.71725 4.67196,7.01663 10.27831,6.58351 5.68421,-0.43313 11.21269,-3.55163 28.96612,-16.19889 20.47874,-14.55302 25.77362,-17.2384 47.49822,-23.38878 45.39584,-12.90713 74.0505,-18.01801 106.28699,-18.88426 25.85149,-0.693 40.49029,0.95287 67.74336,7.623 53.10457,13.08039 102.00437,31.70478 136.65471,52.1483 72.90018,44.93565 123.5556,114.53721 165.93229,159.65002 11.4463,12.21414 17.6055,30.70476 30.6869,28.27926 25.6179,-4.93763 89.0326,-38.6067 109.3556,-63.03497 -72.0463,-17.33213 -137.8353,-11.86613 -173.23256,-68.68016 2.97382,-59.92041 311.63066,-253.720391 182.89006,-91.86485 z"
       id="path3725"
       inkscape:connector-curvature="0"
       style="fill:#000000;stroke:none;stroke-width:0.08212882" />
    <ellipse
       transform="matrix(0.99962604,0.02734545,0,1,0,0)"
       style="fill:#ffffff;stroke-width:0.91113317"
       ry="19.588528"
       rx="20.140543"
       cy="260.47122"
       cx="301.90381"
       id="path21488" />
    <ellipse
       style="fill:#ffffff;stroke-width:0.77465248"
       id="path21488-4"
       ry="20.236824"
       rx="20.801937"
       cy="249.40453"
       cx="371.10779" />
  </g>
</svg>
